#N canvas 446 451 705 223 12;
#X obj 29 18 r float_from_rust;
#X obj 29 54 s float_from_pd;
#X obj 162 18 r symbol_from_rust;
#X obj 162 54 s symbol_from_pd;
#X obj 296 18 r bang_from_rust;
#X obj 296 54 s bang_from_pd;
#X obj 424 18 r list_from_rust;
#X obj 424 55 s list_from_pd;
#X obj 27 103 notein;
#X obj 27 145 noteout;
#X obj 100 103 ctlin;
#X obj 101 146 ctlout;
#X obj 165 102 pgmin;
#X obj 165 146 pgmout;
#X obj 224 148 bendin;
#X obj 223 196 bendout;
#X obj 282 101 touchin;
#X obj 281 142 touchout;
#X obj 356 102 polytouchin;
#X obj 356 144 polytouchout;
#X obj 458 103 midiin;
#X obj 458 145 midiout;
#X obj 519 105 sysexin;
#X obj 519 146 midiout;
#X text 389 185 realtimein and sysexout could not be found;
#X connect 0 0 1 0;
#X connect 2 0 3 0;
#X connect 4 0 5 0;
#X connect 6 0 7 0;
#X connect 8 0 9 0;
#X connect 8 1 9 1;
#X connect 8 2 9 2;
#X connect 10 0 11 0;
#X connect 10 1 11 1;
#X connect 10 2 11 2;
#X connect 12 0 13 0;
#X connect 12 1 13 1;
#X connect 14 0 15 0;
#X connect 14 1 15 1;
#X connect 16 0 17 0;
#X connect 16 1 17 1;
#X connect 18 0 19 0;
#X connect 18 1 19 1;
#X connect 18 2 19 2;
#X connect 20 0 21 0;
#X connect 20 1 21 1;
#X connect 22 0 23 0;
#X connect 22 1 23 1;
