#N canvas 407 170 1321 919 12;
#X text 700 30 input in_min in_max out_min out_max;
#X obj 10 210 clip 0 1;
#X msg 30 790 damping \$1;
#X msg 30 810 width \$1;
#X msg 30 830 print;
#X text 110 830 - print the current values of the above parameters
;
#X text 110 790 - amount of damping of room's surfaces (default: 0.5)
;
#X text 110 810 - stereo width of reverb (default: 1);
#X text 600 310 attack_time \, attack_dest \, release_dest \, release_time
;
#X text 550 540 filter freq \, filter_q;
#X text 460 290 osc_freq;
#X text 700 59 scale_patcher_with_arguments;
#X obj 700 90 expr (($f1 - $f2)/ ($f3 - $f2)) * ($f5 - $f4) + $f4;
#X obj 450 540 moog~, f 12;
#X obj 450 320 osc~ 140;
#X floatatom 570 470 10 1 4 0 - - -;
#X obj 570 500 sig~ 3;
#X text 650 470 Q (1-4);
#X floatatom 490 470 5 0 0 0 - - -;
#X obj 490 500 sig~ 600;
#X obj 600 378 vline~;
#X obj 450 420 *~;
#X obj 450 600 freeverb~;
#X obj 450 660 *~;
#X floatatom 550 600 5 0 1 0 - - -;
#X obj 550 630 sig~ 1;
#X floatatom 450 260 5 0 0 0 - - -;
#X msg 220 540 roomsize \$1;
#X floatatom 310 430 10 0 1 0 - - -;
#X obj 310 490 expr 1- $f1;
#X msg 370 540 wet \$1;
#X msg 310 540 dry \$1;
#X text 310 400 wet mix 0-1;
#X floatatom 220 490 10 0 1 0 - - -;
#X text 130 460 size 0-5 (default=0.85);
#X msg 140 540 freeze \$1;
#X msg 140 570 bypass \$1;
#X text 20 400 reverb_wet \, reverb_size \, reverb_freeze;
#X obj 10 160 unpack f f f f f f f f f f f f, f 161;
#X obj 80 210 clip 30 4000;
#X obj 180 210 clip 60 4000;
#X obj 290 210 clip 1 4;
#X obj 660 250 inlet;
#X obj 790 210 clip 0 1;
#X obj 880 210 clip 0 1;
#X obj 720 350 list store;
#X obj 540 250 pack f f f f;
#X obj 10 80 inlet;
#X obj 450 700 outlet~;
#X msg 600 340 1 1 \, 0 2;
#X msg 720 380 \$1 \$2 \, 0 \$3 \$4;
#X text 10 130 gain \, osc_freq \, filter freq \, filter_q \, attack_dest
\, attack_time \, release_dest \, release_time \, reverb_size \, reverb_wet
\, reverb_freeze \, reverb_bypass, f 147;
#X obj 390 210 clip 0 1;
#X obj 500 210 clip 0 100;
#X obj 590 210 clip 0 1;
#X obj 690 210 clip 0 100;
#X connect 1 0 24 0;
#X connect 13 0 22 1;
#X connect 13 0 22 0;
#X connect 14 0 21 0;
#X connect 15 0 16 0;
#X connect 16 0 13 2;
#X connect 18 0 19 0;
#X connect 19 0 13 1;
#X connect 20 0 21 1;
#X connect 21 0 13 0;
#X connect 22 0 23 0;
#X connect 22 1 23 0;
#X connect 23 0 48 0;
#X connect 24 0 25 0;
#X connect 25 0 23 1;
#X connect 26 0 14 0;
#X connect 27 0 22 0;
#X connect 28 0 30 0;
#X connect 28 0 29 0;
#X connect 29 0 31 0;
#X connect 30 0 22 0;
#X connect 31 0 22 0;
#X connect 33 0 27 0;
#X connect 35 0 22 0;
#X connect 36 0 22 0;
#X connect 38 0 1 0;
#X connect 38 1 39 0;
#X connect 38 2 40 0;
#X connect 38 3 41 0;
#X connect 38 4 52 0;
#X connect 38 5 53 0;
#X connect 38 6 54 0;
#X connect 38 7 55 0;
#X connect 38 8 43 0;
#X connect 38 9 44 0;
#X connect 38 10 35 0;
#X connect 38 11 36 0;
#X connect 39 0 14 0;
#X connect 40 0 18 0;
#X connect 41 0 15 0;
#X connect 42 0 45 0;
#X connect 43 0 27 0;
#X connect 44 0 28 0;
#X connect 45 0 50 0;
#X connect 46 0 45 1;
#X connect 47 0 38 0;
#X connect 49 0 20 0;
#X connect 50 0 20 0;
#X connect 52 0 46 0;
#X connect 53 0 46 1;
#X connect 54 0 46 2;
#X connect 55 0 46 3;
