#N canvas 76 52 954 516 10;
#N canvas 828 148 467 406 rms 0;
#X obj 45 32 inlet~;
#X obj 45 59 env~ 512;
#X obj 45 84 dbtorms~;
#X obj 45 140 -~;
#X obj 45 205 *~;
#X obj 45 250 +~;
#X obj 158 278 /~;
#X obj 60 117 r \$0-thresh;
#X obj 60 181 r \$0-ratio;
#X obj 61 228 r \$0-thresh;
#X obj 159 338 outlet~;
#X obj 175 112 +~ 0;
#X obj 213 36 inlet;
#X obj 213 66 switch~;
#X connect 0 0 1 0;
#X connect 1 0 2 0;
#X connect 2 0 3 0;
#X connect 2 0 11 0;
#X connect 3 0 4 0;
#X connect 4 0 5 0;
#X connect 5 0 6 0;
#X connect 6 0 10 0;
#X connect 7 0 3 1;
#X connect 8 0 4 1;
#X connect 9 0 5 1;
#X connect 11 0 6 1;
#X connect 12 0 13 0;
#X restore 172 114 pd rms;
#N canvas 828 148 467 406 peak 0;
#X obj 45 32 inlet~;
#X obj 45 59 env~ 512;
#X obj 45 140 -~;
#X obj 45 205 *~;
#X obj 45 250 +~;
#X obj 158 278 /~;
#X obj 60 117 r \$0-thresh;
#X obj 60 181 r \$0-ratio;
#X obj 61 228 r \$0-thresh;
#X obj 161 312 outlet~;
#X obj 45 84 abs~;
#X obj 175 110 +~ 0;
#X obj 213 36 inlet;
#X obj 213 66 switch~;
#X connect 0 0 1 0;
#X connect 1 0 10 0;
#X connect 2 0 3 0;
#X connect 3 0 4 0;
#X connect 4 0 5 0;
#X connect 5 0 9 0;
#X connect 6 0 2 1;
#X connect 7 0 3 1;
#X connect 8 0 4 1;
#X connect 10 0 2 0;
#X connect 10 0 11 0;
#X connect 11 0 5 1;
#X connect 12 0 13 0;
#X restore 219 114 pd peak;
#N canvas 0 22 450 300 delWrite 0;
#X obj 24 23 inlet~;
#X obj 24 45 delwrite~ \$0-comp 500;
#X obj 25 99 outlet~;
#X connect 0 0 1 0;
#X restore -39 196 pd delWrite;
#N canvas 0 22 450 300 delRead 0;
#X obj 34 35 inlet~;
#X obj 34 84 delread~ \$0-comp 0;
#X obj 131 33 inlet;
#X floatatom 131 62 5 0 0 0 - - -, f 5;
#X obj 33 139 outlet~;
#X connect 1 0 4 0;
#X connect 2 0 3 0;
#X connect 3 0 1 0;
#X restore -40 270 pd delRead;
#X obj 5 237 r \$0-lookahead;
#X obj 23 34 inlet~;
#X obj 172 171 clip~ 0 1;
#X obj 172 233 lop~;
#X obj 193 206 r \$0-response;
#X obj 157 270 *~;
#X obj 222 27 r \$0-rmspeak;
#X obj 222 56 t f f;
#X obj 224 86 == 0;
#X obj 257 257 r \$0-gain;
#X obj 257 284 pack f 5;
#X obj 257 312 line~;
#X obj 157 302 *~;
#X obj 157 338 outlet~;
#X obj 382 2 inlet;
#X obj 382 33 t a a;
#X obj 382 78 route threshold ratio response gain rmspeak lookahead
;
#X obj 382 367 + 100;
#X obj 382 393 dbtorms;
#X obj 382 425 s \$0-thresh;
#X obj 434 297 swap 1;
#X obj 434 327 /;
#X obj 434 352 s \$0-ratio;
#X obj 487 214 swap 1000;
#X obj 487 241 /;
#X obj 487 275 s \$0-response;
#X obj 539 120 + 100;
#X obj 539 146 dbtorms;
#X obj 593 124 s \$0-rmspeak;
#X obj 644 100 s \$0-lookahead;
#X obj 539 178 s \$0-gain;
#N canvas 802 332 450 300 init 0;
#X obj 29 4 loadbang;
#X obj 23 191 f \$1;
#X msg 24 243 threshold \$1;
#X obj 42 158 f \$2;
#X msg 62 206 ratio \$1;
#X msg 94 175 response \$1;
#X obj 93 119 f \$3;
#X msg 128 139 gain \$1;
#X obj 127 83 f \$4;
#X obj 227 85 f \$5;
#X msg 221 125 rmspeak \$1;
#X obj 310 62 f \$6;
#X msg 310 118 lookahead \$1;
#X obj 187 272 outlet;
#X obj 24 34 t b b b b b b;
#X connect 0 0 14 0;
#X connect 1 0 2 0;
#X connect 2 0 13 0;
#X connect 3 0 4 0;
#X connect 4 0 13 0;
#X connect 5 0 13 0;
#X connect 6 0 5 0;
#X connect 7 0 13 0;
#X connect 8 0 7 0;
#X connect 9 0 10 0;
#X connect 10 0 13 0;
#X connect 11 0 12 0;
#X connect 12 0 13 0;
#X connect 14 0 1 0;
#X connect 14 1 3 0;
#X connect 14 2 6 0;
#X connect 14 3 8 0;
#X connect 14 4 9 0;
#X connect 14 5 11 0;
#X restore 508 24 pd init;
#X connect 0 0 6 0;
#X connect 1 0 6 0;
#X connect 2 0 3 0;
#X connect 3 0 9 0;
#X connect 4 0 3 1;
#X connect 5 0 0 0;
#X connect 5 0 1 0;
#X connect 5 0 2 0;
#X connect 6 0 7 0;
#X connect 7 0 9 1;
#X connect 8 0 7 1;
#X connect 9 0 16 0;
#X connect 10 0 11 0;
#X connect 11 0 12 0;
#X connect 11 1 1 1;
#X connect 12 0 0 1;
#X connect 13 0 14 0;
#X connect 14 0 15 0;
#X connect 15 0 16 1;
#X connect 16 0 17 0;
#X connect 18 0 19 0;
#X connect 19 0 20 0;
#X connect 20 0 21 0;
#X connect 20 1 24 0;
#X connect 20 2 27 0;
#X connect 20 3 30 0;
#X connect 20 4 32 0;
#X connect 20 5 33 0;
#X connect 21 0 22 0;
#X connect 22 0 23 0;
#X connect 24 0 25 0;
#X connect 24 1 25 1;
#X connect 25 0 26 0;
#X connect 27 0 28 0;
#X connect 27 1 28 1;
#X connect 28 0 29 0;
#X connect 30 0 31 0;
#X connect 31 0 34 0;
#X connect 35 0 19 0;
