#N canvas 638 434 630 416 12;
#X obj 198 177 dac~;
#X obj 198 78 osc~ 440;
#X obj 198 127 *~ 0.1;
#X obj 256 128 *~ 0.1;
#X obj 130 264 print;
#X obj 15 81 loadbang;
#X obj 18 333 s simple_float;
#X obj 18 297 f 0.13;
#X obj 182 266 print another;
#X msg 131 220 I am printed from simple pd!;
#X msg 395 217 42 hello;
#X obj 396 259 s listy;
#X obj 121 140 bng 15 250 50 0 empty empty empty 17 7 0 10 -262144
-1 -1;
#X obj 149 314 r simple_float;
#X obj 15 145 metro 2000;
#X connect 1 0 2 0;
#X connect 1 0 3 0;
#X connect 2 0 0 0;
#X connect 3 0 0 1;
#X connect 5 0 14 0;
#X connect 7 0 6 0;
#X connect 9 0 4 0;
#X connect 9 0 8 0;
#X connect 10 0 11 0;
#X connect 13 0 4 0;
#X connect 14 0 9 0;
#X connect 14 0 10 0;
#X connect 14 0 12 0;
#X connect 14 0 7 0;
