#N canvas 638 434 450 300 12;
#X obj 198 177 dac~;
#X obj 198 78 osc~ 440;
#X obj 198 127 *~ 0.1;
#X obj 256 128 *~ 0.1;
#X obj 130 264 print;
#X msg 131 220 I am printed from simple pd!;
#X obj 17 86 loadbang;
#X obj 67 118 r freq;
#X obj 15 229 s simple_float;
#X obj 15 193 f 0.13;
#X obj 182 266 print another;
#X obj 15 156 metro 1000;
#X connect 1 0 2 0;
#X connect 1 0 3 0;
#X connect 2 0 0 0;
#X connect 3 0 0 1;
#X connect 5 0 4 0;
#X connect 5 0 10 0;
#X connect 6 0 11 0;
#X connect 7 0 11 1;
#X connect 9 0 8 0;
#X connect 11 0 9 0;
#X connect 11 0 5 0;
